<?xml version="1.0" encoding="UTF-8"?>
<svg id="Camada_1" xmlns="http://www.w3.org/2000/svg" version="1.1" xmlns:xlink="http://www.w3.org/1999/xlink" viewBox="0 0 4836 2259">
  <!-- Generator: Adobe Illustrator 29.7.1, SVG Export Plug-In . SVG Version: 2.1.1 Build 8)  -->
  <defs>
    <style>
      .st0 {
        fill: url(#Gradiente_sem_nome_35);
      }
    </style>
    <linearGradient id="Gradiente_sem_nome_35" data-name="Gradiente sem nome 35" x1="2249.26" y1="1968.65" x2="4831.99" y2="1968.65" gradientUnits="userSpaceOnUse">
      <stop offset="0" stop-color="#00f1ff"/>
      <stop offset="1" stop-color="#00bbe8"/>
    </linearGradient>
  </defs>
  <g>
    <path d="M1851.76,313.52c2.83,1.61,5.35,2.75,8.72,2.26.59-9.45-8.38-15.24-9.86-25.11-5.82-38.88,20.79-57.6,35.62-88.07,2.16-4.43,14.24-35.53,14.24-37.74v-30.99c14.31,9.27,21.3,30.71,22.02,47.07.81,18.5-14.37,62.1-8.97,74.84.73,1.73,4.57,5.25,6.4,5.74,13.73,3.68,27.54-25.2,34.54-33.68v46.98c0,2.14-8.1,18.92-10.05,21.94-1.85,2.86-17.56,18.73-18.93,18.73-1.12,0-3.62-3.58-5.54-4.16-6.77-2.05-50.76-3.11-53.18.76.64,15.91-2.28,32.16-.28,47.69h54.99c.21,0,3-2.79,3-3v-34.98c0-.55,6.92-.38,10.8-2.2,27.39-12.81,69.64-43.75,89.23-66.72,44.1-51.7,22.49-96.47-13.22-144.81-5.86-7.93-26.3-34.54-32.69-39.28-2.38-1.77-8.25-4.73-10.12-2.86-1.11,1.12,6.03,25.32,5.97,30.97-.03,2.21-3.6,24.7-7.97,19-5.39-30.13-23.72-65.61-44.05-88.91-7.68-8.8-18.25-15.32-23.94-25.04h-8c-3.76,8.34-1.27,17.5-2.51,26.48-4.84,35.08-23.62,70.56-45.46,97.47,3.02-10.11-15.37-55.54-21.97-59.03-9.58-5.06-9.88,18.21-12.16,25.92-11.25,38.01-28.22,44.29-42.96,73-17.51,34.1-4.94,59.23,18.05,86.07,12.89,15.05,52.02,52.4,68.28,61.68Z"/>
    <path d="M2153.78,923.17c-11.23-6.32-48.24-20.3-52.92-29.06l-18.35-77.86c5.95-19.44-4.09-45.4-7.6-66.13-9.72-57.48-17.15-118.15-28.98-174.93-.59-2.83-3.58-15.51-6.48-15.51h-54.99l-1.52,8.42,15.5,87.53c-8.27-7.96-73.96-58.11-73.96-62.97v-29.99c0-2.19-4.88-2.86-6.9-3.1-5.75-.67-46.51-.48-49.1,1.08-8.09,4.87,2.59,26.26-3.88,34.11l-73.07,60.89,14.87-89.29c.73-2.33-.8-6.05-2.89-6.69-7.07-2.16-43.23,0-53.99,0-1.92,0-4,7.32-4.48,9.51-21.59,96.81-28.96,201.56-51.1,298.76-1.2,5.25-3.83,17.65-6.48,21.51-2.48,3.61-52.7,26.67-61.94,32.04-203.98,118.56-299.91,365.79-215.28,589.11,4.87,12.86,39.02,87.89,47.76,90.34,8.54,2.4,14.58-7.97,19.41-13.9,5.19-6.38,40.28-51.84,40.81-55.23,1.02-6.46-9-20.16-11.99-27.22-93.17-219.54,9.55-447.82,226.35-536.06,7.43-3.02,26.94-7.02,31.83-10.16,3.34-2.15,12.1-18.91,16.15-23.84,53.15-64.65,160.43-67.28,213.87-2,4.98,6.09,12.02,21.04,17.28,24.7,8.48,5.9,40.43,14.7,53.46,20.52,201.91,90.08,297.03,323.39,204.95,528.2-3.52,7.82-18.37,29.66-17.41,35.83,6.46,9.05,50.91,71.5,56.69,71.49,5.37-.01,18.01-23.21,21.33-28.71,136.63-226.68,51.63-532.77-176.97-661.39ZM1820.94,854.99l-66.42,12.54,22.98-127.92,76.99,90.89-33.55,24.5ZM1862.53,789.56l-72.17-90.8,70.13-58.12,5.99-.99c.78,2.18-1.99,4.38-1.99,4.98,0,44.95-2.38,93.48,0,137.94.13,2.45,6.01,8.1-1.96,6.98ZM1924.48,639.64l76.13,59.13-76.13,90.8v-149.93ZM2003.34,863.66c-10.25-2.77-24.26-3.26-32.89-7.1-11.54-5.13-23.21-21.03-35.96-25.04l79.96-91.91,24,133.93c-12.35.81-23.67-6.78-35.11-9.88Z"/>
    <path d="M1341.6,1019.47h-140.97c-32.56,144.82-79.26,286.67-100.98,433.83-21.82-144.62-61.82-285.66-90.98-428.83l-3-5h-141.97c-.21,0-3,2.79-3,3v637.72c0,.21,2.79,3,3,3h113.98c4.43,0,3.25-27.93,3.09-33.08-3.09-103.73-2.83-208.25-10.11-311.75-3.21-45.67-9.5-91.22-11.96-136.95l89.73,400.66,100.25.19c2.16-1.67,2.57-4.2,3.43-6.57,13.94-38.29,23.65-98.69,33.56-140.38,20.8-87.51,40.74-175.22,55.96-263.93,2.06,0,.92,6.61.75,8.76-2.99,37.37-8.88,74.78-11.73,112.22-9.2,120.82-5.99,242.57-8.12,363.92-.44,2.05,1.45,6.9,3.1,6.9h115.98c.21,0,3-2.79,3-3v-637.72c0-.21-2.79-3-3-3Z"/>
    <path d="M2923.27,1019.47h-137.97l-2.99,5.01c-32.26,141.07-77.33,279.45-99.01,422.81l-92.96-427.82h-142.97c-.21,0-3,2.79-3,3v637.72c0,.21,2.79,3,3,3h111.98c2.19,0,2.86-4.88,3.1-6.9,2.53-21.52.3-55.33,0-78.16-1.42-106.98-4.96-215.05-14.1-321.75-2.3-26.85-7.62-54.23-6.99-81,24.34,136.79,58.7,272.02,90.9,406.92,1.51,1.08,3.26.82,4.96,1.03,17.51,2.16,72.72,2.18,90.2,0,2.19-.27,4.48.18,5.94-2.06l90.91-403.86c-18.84,159.07-19.28,318.58-18.08,478.88-.44,2.05,1.45,6.9,3.1,6.9h113.98c.21,0,3-2.79,3-3v-637.72c0-.21-2.79-3-3-3Z"/>
    <path d="M4333.88,1026.37c-7.65,65.2,6,145.3.02,212.09,7.15,96.32,16.66,192.42,29.82,288.05l-.75,8.76c-34.15-174.5-88.13-343.91-133.16-515.59l-127.79.79-3.59,4.41,1.6,638.31h114.98c2.19,0,2.86-4.88,3.1-6.9,7.51-63.97-5.9-142.55-.02-208.09-6.16-84.14-12.61-168.27-24.05-251.84l.97-8.99c9.51,49.32,22.43,97.93,35.56,146.39,27.53,101.56,57.17,207.05,88.42,307.43,2.23,7.18,4.06,15.71,7.99,21.99h124.97v-643.72h-114.98c-2.19,0-2.86,4.88-3.1,6.9Z"/>
    <path d="M3708.26,1366.52c19.26-10.45,40.28-20.28,55.93-36.09,59.22-59.83,61.06-187.65,6.93-251.01-72.74-85.13-217.38-53.65-316.07-60.07-6.35-.51-10.95,2.3-10.97,9.02v623.91s2.09,10.9,2.09,10.9h125.97c-.65-1.96,2-4.34,2-5v-294.87l5.52,3.48,106.46,296.39h130.97c1.01,0,3.29-3.35,3.11-5.02l-111.94-291.65ZM3574.14,1291.35v-169.92c45.94.7,92.46,10.02,103.5,61.45,14.94,69.65-34.97,118.47-103.5,108.47Z"/>
    <path d="M270.88,1366.3c91.38-33.08,118.07-136.28,95.77-223.74-39.94-156.65-229.45-118.28-350.88-123.2-2.05-.44-6.9,1.44-6.9,3.1v637.72c0,.21,2.79,3,3,3h121.97c.21,0,3-2.79,3-3v-296.87l6.17,1.19,105.8,298.68h132.97c1.38,0,4.06-4.38,2.66-6.52l-113.58-290.37ZM230.48,1256.01c-18.44,29.68-60.68,40.79-93.63,35.34v-169.92c34.47,1.31,74.51,4.43,94.37,36.6,16.61,26.91,15.86,71.26-.74,97.99Z"/>
    <path d="M3115.45,1019.35l-145.29,638.79c.06,1.8,1.56,4.57,3.09,5.04h126.97l21.16-104.07,118.95.98,17.86,103.09h132.97c1.12,0,3.11-3.41,3.07-5.05l-140.24-638.46-138.55-.33ZM3140.23,1455.28c16-111.64,34.44-223.06,40.99-335.87,2.97,113.1,25.96,223.88,38.99,335.87h-79.98Z"/>
    <path d="M2171.45,1507.23c-1.85-2.21-8.22-2.79-9.02-1.98-.38.38.21,8.07-.25,10.76-6.71,39.2-28.5,76.8-64.4,95.56-6.8,3.56-34.35,8.87-18.36,17.7l72.99-4.05c1.69,1.47-9.21,14.36-10.89,16.08-61.84,63-202.74,92.88-217.12-27.01l.53-353.46c12.94-38.35,57.3-10.57,82.9-27.07,25.97-16.74,15.61-54.07-14.55-58.18-16.66-2.27-50.63,6.46-54.7-19.28-.95-6-1.19-30.24-.12-35.88.87-4.61,18.53-13.47,24.03-17.96,96.66-79.03,14.08-225.03-102.41-196.34-91.14,22.44-119.92,135.61-45.61,196.34,4.14,3.38,23.02,14.2,23.7,16.28,1.23,3.7.94,34.63-.11,39.25-5.39,23.82-38.27,15.39-54.39,17.59-28.57,3.9-40.99,38.94-17.04,56.67,26,19.24,69.39-9.97,83.76,26.22l.18,365.83c-19.23,93.84-115.94,82.75-181.39,43.23-4.82-2.91-50.93-36.71-44.64-42.31,25.09,3.94,51.18.67,76.03,3.07,2-1.41,2.61-3.79,1.88-6.01-.63-1.9-29.57-13.92-35.79-18.2-29.92-20.61-51.44-61.34-52.1-97.68-10.1-6.64-15.33,18.01-17.8,26.07-47.69,155.46,72.33,191.61,184.46,244.95,35.59,16.93,66.05,38.12,92.29,67.66,3.3,3.71,11.09,18.9,15.76,17.92,2.43-.51,25.65-31.96,32.16-37.94,59.76-54.97,143.19-64.6,206.84-113.07,60.5-46.06,72.41-98.63,53.59-171.18-1.23-4.74-8.98-31.88-10.4-33.58ZM1854.62,1060.33c-43.77-30.58-22.71-94.93,29.42-100.37,22.27-2.32,49.82,14.07,57.79,35.17,20.28,53.69-42.92,96.14-87.21,65.2Z"/>
    <path d="M687.17,1450.72c-3.36,11.34-3.98,29.79-7.06,42.91-8.08,34.48-23.28,78.22-67.91,69.15-36.4-7.4-44.73-78.63-47.42-108.52-4.56-50.53-3.54-101.44-1.94-151.83,1.52-47.76-4.54-200.9,76.02-184.12,29.51,6.15,38.26,39.46,43.25,64.72,1.48,7.5,1.37,30.76,7.9,31.97l115.36-37.96c2.33-.8,3.06-1.64,2.97-4.16-.43-12.22-10.84-41.97-15.58-54.49-24.22-63.95-67.82-102.67-137.03-110.89-179.13-21.28-222.92,143.19-229.01,286.77-6.66,156.93,9.59,422.31,235.7,377.58,89.96-17.8,136.84-100.74,146.06-186.35l-116.77-39.57c-1.94.2-3.97,2.91-4.53,4.79Z"/>
    <path d="M4812.88,1019.47h-267.94c-.21,0-3,2.79-3,3v637.72c0,.21,2.79,3,3,3h267.94c.21,0,3-2.79,3-3v-103.95c0-.21-2.79-3-3-3h-140.97v-172.92c0-.21,2.79-3,3-3h140.97v-102.95c0-.21-2.79-3-3-3h-140.97v-143.94h140.97c.21,0,3-2.79,3-3v-101.95c0-.21-2.79-3-3-3Z"/>
    <path d="M4009.05,1019.47h-123.97c-.35,0-3.53,3.08-3.97,4.03l-1.13,628.79,2.1,10.9h126.97c.21,0,3-2.79,3-3v-637.72c0-.21-2.79-3-3-3Z"/>
    <rect x="1764.51" y="367.76" width="259.95" height="121.95"/>
    <path d="M1747.4,553.8c96.18-5.93,201.01,7.47,296.15-.02,3.85-.3,7.24-1.17,10.9-2.1v-50.98c0-.21-2.79-3-3-3h-311.94c-.21,0-3,2.79-3,3v47.98c0,2.31,7.87,6.3,10.88,5.12Z"/>
    <path d="M4714.9,835.56h112.98v-29.99h-120.97c-10.93,0-27.82,19.06-30.11,29.87-3.34,15.74-2.29,65.51-.97,83.16,1.1,14.66,7.1,26.54,20.2,33.78,1.93,1.06,9.81,5.12,10.88,5.12h120.97v-29.99h-112.98c-2.01,0-9-6.99-9-9v-28.99h95.98v-29.99h-95.98c-1.43-6.26.51-23.99,9-23.99Z"/>
    <path d="M4146.9,957.38c36.68-5.76,50.16-57.05,24.41-83.13-24.25-24.55-60.74-10.3-90.13-14.84-13.71-2.12-12.13-19.67-1.23-22.95,7.42-2.24,51.83-2.01,60.89-.71,16.16,2.32,10.9,13.63,16.46,15.53,2.97,1.01,24.44.8,26.82-.66,3.02-1.84-.83-15.06-1.97-18.19-6.14-16.77-19.49-25.64-37.03-26.95-16.4-1.23-65.63-1.99-79.03,3.12-35.8,13.66-33.52,67.81,1.97,79.92,22.86,7.8,52.75-1.39,74.49,3.54,13.6,3.08,15.9,24.84,3.33,32.3-7.85,4.66-56.64,4.91-64.57.89-8.57-4.34-9.93-16.96-12.26-17.73-6-1.99-21.63,1.45-28.99,0-1.14,20.15,15.98,45,35.88,49.09,11.42,2.35,59.23,2.61,70.98.76Z"/>
    <path d="M4553.94,889.53c19.33.01,34.42-3.42,46.38,14.6,9.82,14.8,17.44,37.16,25.6,53.37h33.99l-31.95-66.99c28.11-10.34,41.86-37.45,27.05-65.06-3.55-6.62-19.06-19.89-26.09-19.89h-103.98c-.21,0-3,2.79-3,3v145.94c0,.21,2.79,3,3,3h28.99v-67.97ZM4553.94,835.56h66.99c11.73,0,11.74,23.99,0,23.99h-66.99v-23.99Z"/>
    <path d="M4197.91,950.61c.24,2.01.91,6.9,3.1,6.9h28.99v-67.97h91.98v67.97h29.99v-151.93h-29.99v53.98h-91.98v-53.98h-28.99c-1.66,0-3.54,4.85-3.1,6.9,4.02,43.56-4.99,95.64,0,138.14Z"/>
    <path d="M3659.96,946.34c69.79-43.38,31.48-151.98-54.31-140.26-27.8,3.8-53.73,28.72-60.6,55.37-17.36,67.36,55.41,121.87,114.9,84.89ZM3613.67,836.06c61.77-7.64,69.19,88.96,7.36,91.52-57.08,2.37-64.69-84.43-7.36-91.52Z"/>
    <path d="M4423.48,806.09c-27.8,3.8-53.73,28.72-60.6,55.37-17.36,67.36,55.41,121.87,114.9,84.89,69.79-43.38,31.48-151.98-54.31-140.26ZM4438.86,927.58c-57.08,2.37-64.69-84.43-7.36-91.52,61.77-7.64,69.19,88.96,7.36,91.52Z"/>
    <path d="M4022.77,805.85c-35.97,1.93-76.34-3.53-111.78-.36-12.84,1.15-25.75,8.32-32.59,19.4-1.55,2.52-6.32,13.65-6.32,15.67v116.95h28.99c.21,0,3-2.79,3-3v-64.97h93.98v-29.99h-93.98c-1.22-6.82-.45-23.99,9-23.99h112.98c-1.23-6.1,3.09-27.62-3.28-29.71Z"/>
    <path d="M3706.11,836.55v120.95h29.99v-67.97h95.98v-29.99h-95.98c-1.43-6.26.51-23.99,9-23.99h112.98v-29.99h-120.98c-9.66,0-30.99,21.35-30.99,30.99Z"/>
    <path d="M2032.45,867.53l-2-13.98c-12.03,2.23-9.64,13.29,2,13.98Z"/>
  </g>
  <path class="st0" d="M2619.04,1829.13c272.74,25.93,433.93,63.85,611.56,144s192.15,92.3,456.89,192,265.93,90.67,398.22,90.67,248.15-57.93,364.44-128,381.84-381.58,381.84-381.58c0,0-333.82,185.81-676.66,174.17-248.82-8.45-541.33-145.33-900-202.67-307.47-49.15-431.56-34.86-526.22-33.33-275.56,4.44-479.85,139.41-479.85,139.41,0,0,97.04-20.59,369.78,5.33Z"/>
</svg>